<?xml version="1.0" encoding="utf-8"?>
<!-- Generator: Adobe Illustrator 27.3.1, SVG Export Plug-In . SVG Version: 6.00 Build 0)  -->
<svg version="1.1" id="PiroGon_Logo" xmlns="http://www.w3.org/2000/svg" xmlns:xlink="http://www.w3.org/1999/xlink" x="0px"
	 y="0px" viewBox="0 0 360 90.6" style="enable-background:new 0 0 360 90.6;" xml:space="preserve">
<style type="text/css">
	.st0{fill:#145D7A;}
</style>
<g>
	<rect x="155.5" y="41.2" class="st0" width="24.5" height="24.5"/>
	<rect x="261.6" y="41.2" class="st0" width="24.5" height="24.5"/>
	<polygon class="st0" points="120.5,49.4 131,49.4 131,41.2 106.5,41.2 106.5,49.4 108.9,49.4 	"/>
	<path class="st0" d="M0,0v90.6h360V0H0z M33.1,73.9h-8.2V33.1h8.2V73.9z M73.9,24.9v24.5H41.2v-8.2h24.5V24.9h-49v-8.2h57.1h0
		L73.9,24.9z M90.2,73.9H82V33.1h8.2V73.9z M139.2,57.6h-10.6l10.6,10.6v5.8h-5.8l-16.3-16.3h-10.6v16.3h-8.2V33.1h40.8V57.6z
		 M188.2,73.9h-40.8V33.1h40.8V73.9z M245.3,73.9L245.3,73.9h-49V33.1h8.2v32.6h32.7V49.4h-16.3v-8.2h24.5h0l0,8.2v16.3L245.3,73.9z
		 M245.3,24.9h-49v-8.2h49V24.9z M294.3,73.9h-40.8V33.1h40.8V73.9z M343.3,73.9h-8.2V41.2h-24.5v32.6h-8.2V33.1h40.8L343.3,73.9
		L343.3,73.9z"/>
</g>
</svg>
